<svg xmlns="http://www.w3.org/2000/svg" version="1.1" xmlns:xlink="http://www.w3.org/1999/xlink" viewBox="0 0 2000 1247"><g transform="matrix(1,0,0,1,-1.2121212121211329,0.504858299595071)"><svg viewBox="0 0 396 247" data-background-color="#ffffff" preserveAspectRatio="xMidYMid meet" height="1247" width="2000" xmlns="http://www.w3.org/2000/svg" xmlns:xlink="http://www.w3.org/1999/xlink"><g id="tight-bounds" transform="matrix(1,0,0,1,0.2400000000000091,-0.09999999999999432)"><svg viewBox="0 0 395.52 247.2" height="247.2" width="395.52"><g><svg></svg></g><g><svg viewBox="0 0 395.52 247.2" height="247.2" width="395.52"><g transform="matrix(1,0,0,1,75.54432000000001,104.82738234523558)"><svg viewBox="0 0 244.43135999999996 37.54523530952883" height="37.54523530952883" width="244.43135999999996"><g><svg viewBox="0 0 244.43136 37.545235309528834" height="37.54523530952883" width="244.43135999999996"><g><svg viewBox="0 0 244.43136 37.545235309528834" height="37.545235309528834" width="244.43136"><g id="textblocktransform"><svg viewBox="0 0 244.43136 37.545235309528834" height="37.545235309528834" width="244.43136" id="textblock"><g><svg viewBox="0 0 244.43136 37.545235309528834" height="37.545235309528834" width="244.43136"><g transform="matrix(1,0,0,1,0,0)"><svg width="244.43136" viewBox="1.85 -35.8 236.63 36.349999999999994" height="37.545235309528834" data-palette-color="#31302e"><path d="M4.7-8.9Q4.85-7.2 5.98-5.65 7.1-4.1 9.08-3.13 11.05-2.15 13.6-2.15L13.6-2.15Q17.45-2.15 20.03-3.88 22.6-5.6 22.6-9.35L22.6-9.35Q22.6-11.55 21.35-13.03 20.1-14.5 18.25-15.38 16.4-16.25 13.2-17.4L13.2-17.4Q9.75-18.6 7.68-19.63 5.6-20.65 4.17-22.4 2.75-24.15 2.75-26.9L2.75-26.9Q2.75-29.1 4-31.08 5.25-33.05 7.78-34.27 10.3-35.5 14-35.5L14-35.5Q16.45-35.5 18.05-35.15 19.65-34.8 21.3-34L21.3-34 20.45-31.35Q17.6-32.8 14.1-32.8L14.1-32.8Q10.25-32.8 7.95-31.2 5.65-29.6 5.65-26.75L5.65-26.75Q5.65-24.95 6.8-23.73 7.95-22.5 9.63-21.75 11.3-21 14.3-19.95L14.3-19.95Q17.95-18.7 20.2-17.63 22.45-16.55 24.03-14.58 25.6-12.6 25.6-9.6L25.6-9.6Q25.6-5 22.68-2.23 19.75 0.55 13.65 0.55L13.65 0.55Q9.95 0.55 7.33-0.83 4.7-2.2 3.33-4.38 1.95-6.55 1.85-8.9L1.85-8.9 4.7-8.9ZM36.55 0L36.55-32.5 28.05-32.5 28.05-35 48.15-35 48.15-32.5 39.35-32.5 39.35 0 36.55 0ZM71.3-9.25Q71.3-4.2 68.22-1.83 65.15 0.55 60.85 0.55L60.85 0.55Q58.15 0.55 55.75-0.43 53.35-1.4 51.82-3.6 50.3-5.8 50.3-9.25L50.3-9.25 50.3-25.35Q50.3-30.5 53.12-33.15 55.95-35.8 60.9-35.8L60.9-35.8Q65.84-35.8 68.57-33 71.3-30.2 71.3-25.3L71.3-25.3 71.3-9.25ZM68.55-25.8Q68.55-29.45 66.42-31.3 64.3-33.15 60.8-33.15L60.8-33.15Q57.3-33.15 55.2-31.3 53.1-29.45 53.1-25.8L53.1-25.8 53.1-9.3Q53.1-5.75 55.27-3.93 57.45-2.1 60.8-2.1L60.8-2.1Q64.2-2.1 66.37-3.88 68.55-5.65 68.55-9.35L68.55-9.35 68.55-25.8ZM95.94-1.15Q91.49 0.5 87.64 0.5L87.64 0.5Q83.29 0.5 80.59-1.8 77.89-4.1 77.89-9.15L77.89-9.15 77.89-25.2Q77.89-29 78.97-30.95 80.04-32.9 82.24-34.25L82.24-34.25Q84.44-35.5 87.64-35.5L87.64-35.5Q91.54-35.5 94.69-33.85L94.69-33.85 93.89-31.95Q91.04-33 88.49-33L88.49-33Q85.44-33 83.07-31.5 80.69-30 80.69-25.65L80.69-25.65 80.69-9.25Q80.69-5.8 82.49-3.93 84.29-2.05 87.89-2.05L87.89-2.05Q91.04-2.05 95.34-3.5L95.34-3.5 95.94-1.15ZM116.84 0L105.54-17.25 103.14-13.45 103.14 0 100.34 0 100.34-35.05 103.14-35.05 103.14-18.35 114.34-35.05 117.59-35.05 107.34-19.9 120.19 0 116.84 0ZM124.04 0L124.04-35 136.34-35Q141.09-35 143.41-32.1 145.74-29.2 145.74-24.3L145.74-24.3Q145.74-21.15 145.24-18.63 144.74-16.1 142.74-14.18 140.74-12.25 136.69-12.25L136.69-12.25 126.84-12.25 126.84 0 124.04 0ZM136.74-15Q139.54-15 140.91-16.5 142.29-18 142.61-19.9 142.94-21.8 142.94-24.15L142.94-24.15Q142.94-28.25 141.24-30.3 139.54-32.35 136.54-32.35L136.54-32.35 126.84-32.35 126.84-15 136.74-15ZM151.28 0L151.28-35 167.98-35 167.98-32.4 154.08-32.4 154.08-20.65 163.63-20.65 162.69-17.9 154.08-17.9 154.08-2.5 167.88-2.5 167.88 0 151.28 0ZM174.53 0L174.53-35.05 183.93-35.05Q189.58-35.05 192.56-31.95 195.53-28.85 195.53-23.7L195.53-23.7 195.53-10Q195.53 0 184.93 0L184.93 0 174.53 0ZM192.73-24.2Q192.73-27.05 191.51-28.93 190.28-30.8 188.38-31.65 186.48-32.5 184.43-32.5L184.43-32.5 177.33-32.5 177.33-2.5 184.13-2.5Q187.78-2.5 190.26-3.93 192.73-5.35 192.73-9.5L192.73-9.5 192.73-24.2ZM206.08 0L206.08-32.45 202.73-32.55 202.73-35 208.88-35 208.88 0 206.08 0ZM235.48 0L231.48-12.25 220.08-12.25 216.18 0 213.23 0 224.43-35 227.08-35 238.48 0 235.48 0ZM225.73-30.65L220.88-15 230.73-15 225.73-30.65Z" opacity="1" transform="matrix(1,0,0,1,0,0)" fill="#ffffff" class="wordmark-text-0" data-fill-palette-color="primary" id="text-0"></path></svg></g></svg></g></svg></g></svg></g></svg></g></svg></g><g><path d="M0 123.6c0-68.262 55.338-123.6 123.6-123.6 60.331 0 110.566 43.225 121.425 100.396l-1.724 0c-10.836-56.23-60.309-98.703-119.701-98.703-67.327 0-121.907 54.58-121.907 121.907 0 67.327 54.58 121.907 121.907 121.907 59.393 0 108.865-42.473 119.701-98.703l1.724 0c-10.859 57.17-61.094 100.396-121.425 100.396-68.262 0-123.6-55.338-123.6-123.6z" fill="#ffffff" stroke="transparent" data-fill-palette-color="tertiary"></path></g></svg></g><defs></defs></svg><rect width="395.52" height="247.2" fill="none" stroke="none" visibility="hidden"></rect></g></svg></g></svg>