<svg xmlns="http://www.w3.org/2000/svg" version="1.1" xmlns:xlink="http://www.w3.org/1999/xlink" viewBox="0 0 2000 1247"><g transform="matrix(1,0,0,1,-1.2121212121212466,116.65426610231884)"><svg viewBox="0 0 396 247" data-background-color="#929395" preserveAspectRatio="xMidYMid meet" height="1247" width="2000" xmlns="http://www.w3.org/2000/svg" xmlns:xlink="http://www.w3.org/1999/xlink"><g id="tight-bounds" transform="matrix(1,0,0,1,0.2400000000000091,-0.09999999999999432)"><svg viewBox="0 0 395.52 247.2" height="247.2" width="395.52"><g><svg></svg></g><g><svg viewBox="0 0 395.52 247.2" height="247.2" width="395.52"><g transform="matrix(1,0,0,1,75.54432,104.93851565626633)"><svg viewBox="0 0 244.43135999999998 37.322968687467316" height="37.322968687467316" width="244.43135999999998"><g><svg viewBox="0 0 244.43135999999998 37.322968687467316" height="37.322968687467316" width="244.43135999999998"><g><svg viewBox="0 0 244.43135999999998 37.322968687467316" height="37.322968687467316" width="244.43135999999998"><g><svg viewBox="0 0 244.43135999999998 37.322968687467316" height="37.322968687467316" width="244.43135999999998"><g id="textblocktransform"><svg viewBox="0 0 244.43135999999998 37.322968687467316" height="37.322968687467316" width="244.43135999999998" id="textblock"><g><svg viewBox="0 0 244.43135999999998 37.322968687467316" height="37.322968687467316" width="244.43135999999998"><g transform="matrix(1,0,0,1,0,0)"><svg width="244.43135999999998" viewBox="2 -38.3 286.83 43.8" height="37.322968687467316" data-palette-color="#ffffff"><path d="M2-8.45L2.2-8.6Q4.4-7.85 7.03-7.43 9.65-7 12.25-7L12.25-7Q15.8-7 17.53-7.33 19.25-7.65 19.8-8.35 20.35-9.05 20.35-10.15L20.35-10.15Q20.35-11.1 19.95-11.65 19.55-12.2 18.4-12.53 17.25-12.85 15-13.05L15-13.05 11.7-13.35Q8-13.7 5.88-14.9 3.75-16.1 2.88-18.13 2-20.15 2-23L2-23Q2-27.05 3.98-29.28 5.95-31.5 10.65-32.2L10.65-32.2 10.65-38.3 18.65-38.3 18.65-32.5Q23.65-32.2 27.15-30.8L27.15-30.8 27-24 26.85-23.8Q21.9-25.55 16.5-25.55L16.5-25.55Q13.9-25.55 12.5-25.28 11.1-25 10.55-24.4 10-23.8 10-22.7L10-22.7Q10-21.6 10.38-21.05 10.75-20.5 11.9-20.23 13.05-19.95 15.25-19.7L15.25-19.7 18.4-19.35Q22.4-18.9 24.55-17.75 26.7-16.6 27.53-14.68 28.35-12.75 28.35-10L28.35-10Q28.35-5.85 26.13-3.43 23.9-1 18.65-0.3L18.65-0.3 18.65 5.5 10.65 5.5 10.65-0.1Q8.2-0.2 6.1-0.55 4-0.9 2-1.4L2-1.4 2-8.45ZM47.85-0.45L39.85-0.45 39.85-25.35 30.85-25.35 30.85-32.1 56.85-32.1 56.85-25.35 47.85-25.35 47.85-0.45ZM59.34-16.3L59.34-16.3Q59.34-22.35 60.72-25.9 62.09-29.45 65.47-31 68.84-32.55 74.89-32.55L74.89-32.55Q79.44-32.55 82.44-31.7 85.44-30.85 87.19-28.95 88.94-27.05 89.67-23.93 90.4-20.8 90.4-16.3L90.4-16.3Q90.4-11.75 89.67-8.63 88.94-5.5 87.19-3.6 85.44-1.7 82.44-0.85 79.44 0 74.89 0L74.89 0Q70.34 0 67.34-0.85 64.34-1.7 62.59-3.6 60.84-5.5 60.09-8.63 59.34-11.75 59.34-16.3ZM74.89-7L74.89-7Q78.09-7 79.69-7.8 81.3-8.6 81.84-10.63 82.39-12.65 82.39-16.3L82.39-16.3Q82.39-19.9 81.84-21.9 81.3-23.9 79.69-24.73 78.09-25.55 74.89-25.55L74.89-25.55Q71.75-25.55 70.12-24.73 68.5-23.9 67.92-21.9 67.34-19.9 67.34-16.3L67.34-16.3Q67.34-12.65 67.92-10.63 68.5-8.6 70.12-7.8 71.75-7 74.89-7ZM118.74-7.5L118.99-7.3 118.99-1Q116.59-0.5 114.29-0.25 111.99 0 108.84 0L108.84 0Q104.79 0 102.02-0.7 99.24-1.4 97.57-3.18 95.89-4.95 95.14-8.2 94.39-11.45 94.39-16.55L94.39-16.55Q94.39-21.45 95.14-24.6 95.89-27.75 97.57-29.48 99.24-31.2 102.02-31.88 104.79-32.55 108.84-32.55L108.84-32.55Q111.99-32.55 114.29-32.33 116.59-32.1 118.99-31.55L118.99-31.55 118.99-25.05 118.84-24.95Q116.74-25.45 114.79-25.68 112.84-25.9 109.99-25.9L109.99-25.9Q107.69-25.9 106.22-25.58 104.74-25.25 103.89-24.3 103.04-23.35 102.72-21.5 102.39-19.65 102.39-16.55L102.39-16.55Q102.39-13.3 102.72-11.33 103.04-9.35 103.89-8.35 104.74-7.35 106.22-7 107.69-6.65 109.99-6.65L109.99-6.65Q112.79-6.65 114.77-6.83 116.74-7 118.74-7.5L118.74-7.5ZM131.24-13.55L131.24-0.45 123.24-0.45 123.24-32.1 131.24-32.1 131.24-18.85Q131.34-18.85 131.39-18.85L131.39-18.85Q131.89-18.85 132.56-19.65 133.24-20.45 133.79-21.25L133.79-21.25 140.49-32.1 149.19-32.1 149.19-31.95 143.49-22.75Q142.74-21.5 141.79-20.08 140.84-18.65 139.92-17.57 138.99-16.5 138.29-16.25L138.29-16.25 138.29-16.1Q138.99-15.8 139.92-14.83 140.84-13.85 141.81-12.58 142.79-11.3 143.69-10.05L143.69-10.05 150.34-0.6 150.34-0.45 141.14-0.45 134.89-10.05 134.89-10Q134.59-10.5 133.97-11.33 133.34-12.15 132.67-12.85 131.99-13.55 131.49-13.55L131.49-13.55Q131.39-13.55 131.34-13.55 131.29-13.55 131.24-13.55L131.24-13.55ZM161.54-8.2L161.54-0.45 153.54-0.45 153.54-32.1 167.64-32.1Q172.39-32.1 175.24-30.95 178.09-29.8 179.34-27.2 180.59-24.6 180.59-20.15L180.59-20.15Q180.59-15.95 179.34-13.33 178.09-10.7 175.24-9.45 172.39-8.2 167.64-8.2L167.64-8.2 161.54-8.2ZM166.34-25.55L166.34-25.55 161.54-25.55 161.54-14.75 166.34-14.75Q169.89-14.75 171.09-15.95 172.29-17.15 172.29-20.15L172.29-20.15Q172.29-23 171.09-24.28 169.89-25.55 166.34-25.55ZM208.34-0.45L184.84-0.45 184.84-32.1 208.34-32.1 208.34-25.6 192.84-25.6 192.84-19.6 206.29-19.6 206.29-13.1 192.84-13.1 192.84-6.95 208.34-6.95 208.34-0.45ZM226.18-0.45L212.33-0.45 212.33-32.1 226.18-32.1Q230.33-32.1 233.13-31.43 235.93-30.75 237.63-29.05 239.33-27.35 240.08-24.33 240.83-21.3 240.83-16.55L240.83-16.55Q240.83-11.6 240.08-8.45 239.33-5.3 237.63-3.55 235.93-1.8 233.13-1.13 230.33-0.45 226.18-0.45L226.18-0.45ZM225.03-25.35L225.03-25.35 220.33-25.35 220.33-7.2 225.03-7.2Q227.93-7.2 229.61-7.85 231.28-8.5 232.01-10.5 232.73-12.5 232.73-16.55L232.73-16.55Q232.73-20.4 232.01-22.28 231.28-24.15 229.61-24.75 227.93-25.35 225.03-25.35ZM253.83-32.1L253.83-0.45 245.83-0.45 245.83-32.1 253.83-32.1ZM278.58-32.1L288.83-0.6 288.83-0.45 280.33-0.45Q279.98-1.65 279.5-3.2 279.03-4.75 278.48-6.5L278.48-6.5 267.68-6.5Q266.68-3 265.83-0.45L265.83-0.45 257.33-0.45 257.33-0.55 267.58-32.1 278.58-32.1ZM273.18-26.4L272.98-26.4Q272.48-23.85 271.53-20.2 270.58-16.55 269.53-12.75L269.53-12.75 276.68-12.75Q275.58-16.55 274.63-20.2 273.68-23.85 273.18-26.4L273.18-26.4Z" opacity="1" transform="matrix(1,0,0,1,0,0)" fill="#ffffff" class="wordmark-text-0" data-fill-palette-color="primary" id="text-0"></path></svg></g></svg></g></svg></g></svg></g><g></g></svg></g></svg></g></svg></g><g><path d="M78.672 96.127A122.216 122.216 0 0 1 316.848 96.127L313.482 96.127A118.85 118.85 0 0 0 82.038 96.127L78.672 96.127M78.672 151.073A122.216 122.216 0 0 0 316.848 151.073L313.482 151.073A118.85 118.85 0 0 1 82.038 151.073L78.672 151.073" fill="#ffffff" stroke="transparent" data-fill-palette-color="tertiary"></path></g></svg></g><defs></defs></svg><rect width="395.52" height="247.2" fill="none" stroke="none" visibility="hidden"></rect></g></svg></g></svg>