<svg xmlns="http://www.w3.org/2000/svg" version="1.1" xmlns:xlink="http://www.w3.org/1999/xlink" viewBox="0 0 2000 1272"><g transform="matrix(1,0,0,1,-1.2121212121212466,17.658406019008567)"><svg viewBox="0 0 396 252" data-background-color="#000000" preserveAspectRatio="xMidYMid meet" height="1272" width="2000" xmlns="http://www.w3.org/2000/svg" xmlns:xlink="http://www.w3.org/1999/xlink"><g id="tight-bounds" transform="matrix(1,0,0,1,0.2400000000000091,1.60159420402627)"><svg viewBox="0 0 395.52 247.2" height="247.2" width="395.52"><g><svg></svg></g><g><svg viewBox="0 0 395.52 247.2" height="247.2" width="395.52"><mask id="82143273-53a6-4546-9535-d4f939dcc988"><rect width="640" height="400" fill="white"></rect><g transform="matrix(1,0,0,1,39.55199999999999,89.0526764902341)"><svg viewBox="0 0 316.416 69.09464701953178" height="69.09464701953178" width="316.416"><g><svg viewBox="0 0 316.416 69.09464701953178" height="69.09464701953178" width="316.416"><g><svg viewBox="0 0 316.416 69.09464701953178" height="69.09464701953178" width="316.416"><g><svg viewBox="0 0 316.416 69.09464701953178" height="69.09464701953178" width="316.416"><g id="SvgjsG3248"><svg viewBox="0 0 316.416 69.09464701953178" height="69.09464701953178" width="316.416" id="SvgjsSvg3247"><g><svg viewBox="0 0 316.416 69.09464701953178" height="69.09464701953178" width="316.416"><g transform="matrix(1,0,0,1,0,0)"><svg width="316.416" viewBox="-0.5099999999999998 -43.99 243.67 54.00000000000001" height="69.09464701953178" data-palette-color="#ffffff"><path d="M14.5 6.01L12.01 6.01 12.01 0.49Q10.25 0.46 8.69-0.21 7.13-0.88 5.98-2.04 4.83-3.2 4.16-4.76 3.49-6.32 3.49-8.11L3.49-8.11 3.49-9.5 6.64-10.01 6.64-8.11Q6.64-6.96 7.06-5.96 7.47-4.96 8.2-4.2 8.94-3.44 9.91-2.99 10.89-2.54 12.01-2.49L12.01-2.49 12.01-16.7Q10.4-17.29 8.87-17.98 7.35-18.68 6.15-19.75 4.96-20.83 4.22-22.39 3.49-23.95 3.49-26.25L3.49-26.25 3.49-26.9Q3.49-28.66 4.16-30.21 4.83-31.76 5.98-32.93 7.13-34.11 8.69-34.79 10.25-35.47 12.01-35.5L12.01-35.5 12.01-39.99 14.5-39.99 14.5-35.5Q16.24-35.47 17.77-34.78 19.31-34.08 20.46-32.92 21.61-31.76 22.28-30.21 22.95-28.66 22.95-26.9L22.95-26.9 22.95-26 19.8-25.49 19.8-26.9Q19.8-28.03 19.38-29.03 18.97-30.03 18.26-30.77 17.55-31.52 16.58-31.98 15.6-32.45 14.5-32.5L14.5-32.5 14.5-18.95Q16.09-18.33 17.65-17.6 19.21-16.87 20.45-15.77 21.68-14.67 22.44-13.07 23.19-11.47 23.19-9.16L23.19-9.16 23.19-8.11Q23.19-6.32 22.52-4.76 21.85-3.2 20.68-2.03 19.51-0.85 17.94-0.18 16.38 0.49 14.6 0.49L14.6 0.49 14.5 0.49 14.5 6.01ZM20.04-9.16L20.04-9.16Q20.04-10.55 19.6-11.58 19.17-12.62 18.42-13.39 17.68-14.16 16.66-14.72 15.65-15.28 14.5-15.75L14.5-15.75 14.5-2.49Q15.65-2.49 16.66-2.93 17.68-3.37 18.42-4.14 19.17-4.91 19.6-5.92 20.04-6.93 20.04-8.11L20.04-8.11 20.04-9.16ZM6.64-26.25L6.64-26.25Q6.64-24.95 7.06-23.99 7.47-23.02 8.2-22.29 8.94-21.56 9.91-21 10.89-20.43 12.01-19.95L12.01-19.95 12.01-32.5Q10.89-32.45 9.91-31.98 8.94-31.52 8.2-30.77 7.47-30.03 7.06-29.03 6.64-28.03 6.64-26.9L6.64-26.9 6.64-26.25ZM46.8-32.01L38.45-32.01 38.45 0 35.3 0 35.3-32.01 26.95-32.01 26.95-35.01 46.8-35.01 46.8-32.01ZM70.99-8.11L70.99-8.11Q70.99-6.32 70.32-4.76 69.65-3.2 68.48-2.03 67.3-0.85 65.74-0.18 64.18 0.49 62.4 0.49L62.4 0.49 59.91 0.49Q58.12 0.49 56.55-0.18 54.98-0.85 53.8-2.03 52.63-3.2 51.96-4.76 51.29-6.32 51.29-8.11L51.29-8.11 51.29-26.9Q51.29-28.69 51.96-30.25 52.63-31.81 53.8-32.98 54.98-34.16 56.55-34.83 58.12-35.5 59.91-35.5L59.91-35.5 62.4-35.5Q64.18-35.5 65.74-34.83 67.3-34.16 68.48-32.98 69.65-31.81 70.32-30.25 70.99-28.69 70.99-26.9L70.99-26.9 70.99-8.11ZM67.84-8.11L67.84-26.9Q67.84-28.08 67.4-29.09 66.96-30.1 66.21-30.86 65.45-31.62 64.44-32.06 63.42-32.5 62.25-32.5L62.25-32.5 60.05-32.5Q58.88-32.5 57.87-32.06 56.86-31.62 56.09-30.86 55.32-30.1 54.88-29.09 54.44-28.08 54.44-26.9L54.44-26.9 54.44-8.11Q54.44-6.93 54.88-5.92 55.32-4.91 56.09-4.14 56.86-3.37 57.87-2.93 58.88-2.49 60.05-2.49L60.05-2.49 62.25-2.49Q63.42-2.49 64.44-2.93 65.45-3.37 66.21-4.14 66.96-4.91 67.4-5.92 67.84-6.93 67.84-8.11L67.84-8.11ZM97.7-8.11L97.7-8.11Q97.7-6.32 97.03-4.76 96.35-3.2 95.18-2.03 94.01-0.85 92.45-0.18 90.89 0.49 89.1 0.49L89.1 0.49 86.61 0.49Q84.83 0.49 83.26-0.18 81.68-0.85 80.51-2.03 79.34-3.2 78.67-4.76 78-6.32 78-8.11L78-8.11 78-26.9Q78-28.69 78.67-30.25 79.34-31.81 80.51-32.98 81.68-34.16 83.26-34.83 84.83-35.5 86.61-35.5L86.61-35.5 89.1-35.5Q90.89-35.5 92.45-34.83 94.01-34.16 95.18-32.98 96.35-31.81 97.03-30.25 97.7-28.69 97.7-26.9L97.7-26.9 97.7-25.49 94.55-25 94.55-26.9Q94.55-28.08 94.11-29.09 93.67-30.1 92.91-30.86 92.16-31.62 91.14-32.06 90.13-32.5 88.96-32.5L88.96-32.5 86.76-32.5Q85.59-32.5 84.58-32.06 83.56-31.62 82.79-30.86 82.02-30.1 81.58-29.09 81.14-28.08 81.14-26.9L81.14-26.9 81.14-8.11Q81.14-6.93 81.58-5.92 82.02-4.91 82.79-4.14 83.56-3.37 84.58-2.93 85.59-2.49 86.76-2.49L86.76-2.49 88.96-2.49Q90.13-2.49 91.14-2.93 92.16-3.37 92.91-4.14 93.67-4.91 94.11-5.92 94.55-6.93 94.55-8.11L94.55-8.11 94.55-10.01 97.7-9.5 97.7-8.11ZM125.7 0L121.79 0 108.61-17.5 121.79-35.01 125.7-35.01 112.25-17.5 125.7 0ZM107.85 0L104.7 0 104.7-35.01 107.85-35.01 107.85 0ZM150.4-22.05L150.4-22.05Q150.4-20.26 149.73-18.7 149.06-17.14 147.89-15.97 146.72-14.79 145.14-14.12 143.57-13.45 141.78-13.45L141.78-13.45 133.85-13.45 133.85 0 130.7 0 130.7-35.01 141.78-35.01Q143.57-35.01 145.14-34.34 146.72-33.67 147.89-32.5 149.06-31.32 149.73-29.75 150.4-28.17 150.4-26.39L150.4-26.39 150.4-22.05ZM147.25-22.05L147.25-26.39Q147.25-27.56 146.81-28.58 146.37-29.59 145.61-30.36 144.84-31.13 143.82-31.57 142.81-32.01 141.64-32.01L141.64-32.01 133.85-32.01 133.85-16.46 141.64-16.46Q142.81-16.46 143.82-16.89 144.84-17.33 145.61-18.09 146.37-18.85 146.81-19.86 147.25-20.87 147.25-22.05L147.25-22.05ZM176.11 0L156.41 0 156.41-35.01 176.11-35.01 176.11-32.01 159.56-32.01 159.56-18.99 172.96-18.99 172.96-15.99 159.56-15.99 159.56-3 176.11-3 176.11 0ZM201.81-8.59L201.81-8.59Q201.81-6.81 201.14-5.25 200.47-3.69 199.3-2.51 198.13-1.34 196.55-0.67 194.98 0 193.2 0L193.2 0 182.11 0 182.11-35.01 193.2-35.01Q194.98-35.01 196.55-34.34 198.13-33.67 199.3-32.5 200.47-31.32 201.14-29.75 201.81-28.17 201.81-26.39L201.81-26.39 201.81-8.59ZM198.66-8.59L198.66-26.39Q198.66-27.56 198.22-28.58 197.79-29.59 197.02-30.36 196.25-31.13 195.23-31.57 194.22-32.01 193.05-32.01L193.05-32.01 185.26-32.01 185.26-3 193.05-3Q194.22-3 195.23-3.44 196.25-3.88 197.02-4.64 197.79-5.4 198.22-6.41 198.66-7.42 198.66-8.59L198.66-8.59ZM212.46 0L209.31 0 209.31-35.01 212.46-35.01 212.46 0ZM235.92 0L233.6-8.15 222.51-8.15 220.22 0 216.95 0 227.2-35.01 228.86-35.01 239.16 0 235.92 0ZM227.96-27.29L223.37-11.16 232.77-11.16 228.15-27.29 228.05-28.59 227.96-27.29Z" opacity="1" transform="matrix(1,0,0,1,0,0)" fill="black" class="wordmark-text-0" id="SvgjsPath3246" stroke-width="7" stroke="black" stroke-linejoin="round"></path></svg></g></svg></g></svg></g></svg></g></svg></g></svg></g></svg></g></mask><g transform="matrix(1,0,0,1,39.55199999999999,89.0526764902341)"><svg viewBox="0 0 316.416 69.09464701953178" height="69.09464701953178" width="316.416"><g><svg viewBox="0 0 316.416 69.09464701953178" height="69.09464701953178" width="316.416"><g><svg viewBox="0 0 316.416 69.09464701953178" height="69.09464701953178" width="316.416"><g><svg viewBox="0 0 316.416 69.09464701953178" height="69.09464701953178" width="316.416"><g id="textblocktransform"><svg viewBox="0 0 316.416 69.09464701953178" height="69.09464701953178" width="316.416" id="textblock"><g><svg viewBox="0 0 316.416 69.09464701953178" height="69.09464701953178" width="316.416"><g transform="matrix(1,0,0,1,0,0)"><svg width="316.416" viewBox="-0.5099999999999998 -43.99 243.67 54.00000000000001" height="69.09464701953178" data-palette-color="#ffffff"><path d="M14.5 6.01L12.01 6.01 12.01 0.49Q10.25 0.46 8.69-0.21 7.13-0.88 5.98-2.04 4.83-3.2 4.16-4.76 3.49-6.32 3.49-8.11L3.49-8.11 3.49-9.5 6.64-10.01 6.64-8.11Q6.64-6.96 7.06-5.96 7.47-4.96 8.2-4.2 8.94-3.44 9.91-2.99 10.89-2.54 12.01-2.49L12.01-2.49 12.01-16.7Q10.4-17.29 8.87-17.98 7.35-18.68 6.15-19.75 4.96-20.83 4.22-22.39 3.49-23.95 3.49-26.25L3.49-26.25 3.49-26.9Q3.49-28.66 4.16-30.21 4.83-31.76 5.98-32.93 7.13-34.11 8.69-34.79 10.25-35.47 12.01-35.5L12.01-35.5 12.01-39.99 14.5-39.99 14.5-35.5Q16.24-35.47 17.77-34.78 19.31-34.08 20.46-32.92 21.61-31.76 22.28-30.21 22.95-28.66 22.95-26.9L22.95-26.9 22.95-26 19.8-25.49 19.8-26.9Q19.8-28.03 19.38-29.03 18.97-30.03 18.26-30.77 17.55-31.52 16.58-31.98 15.6-32.45 14.5-32.5L14.5-32.5 14.5-18.95Q16.09-18.33 17.65-17.6 19.21-16.87 20.45-15.77 21.68-14.67 22.44-13.07 23.19-11.47 23.19-9.16L23.19-9.16 23.19-8.11Q23.19-6.32 22.52-4.76 21.85-3.2 20.68-2.03 19.51-0.85 17.94-0.18 16.38 0.49 14.6 0.49L14.6 0.49 14.5 0.49 14.5 6.01ZM20.04-9.16L20.04-9.16Q20.04-10.55 19.6-11.58 19.17-12.62 18.42-13.39 17.68-14.16 16.66-14.72 15.65-15.28 14.5-15.75L14.5-15.75 14.5-2.49Q15.65-2.49 16.66-2.93 17.68-3.37 18.42-4.14 19.17-4.91 19.6-5.92 20.04-6.93 20.04-8.11L20.04-8.11 20.04-9.16ZM6.64-26.25L6.64-26.25Q6.64-24.95 7.06-23.99 7.47-23.02 8.2-22.29 8.94-21.56 9.91-21 10.89-20.43 12.01-19.95L12.01-19.95 12.01-32.5Q10.89-32.45 9.91-31.98 8.94-31.52 8.2-30.77 7.47-30.03 7.06-29.03 6.64-28.03 6.64-26.9L6.64-26.9 6.64-26.25ZM46.8-32.01L38.45-32.01 38.45 0 35.3 0 35.3-32.01 26.95-32.01 26.95-35.01 46.8-35.01 46.8-32.01ZM70.99-8.11L70.99-8.11Q70.99-6.32 70.32-4.76 69.65-3.2 68.48-2.03 67.3-0.85 65.74-0.18 64.18 0.49 62.4 0.49L62.4 0.49 59.91 0.49Q58.12 0.49 56.55-0.18 54.98-0.85 53.8-2.03 52.63-3.2 51.96-4.76 51.29-6.32 51.29-8.11L51.29-8.11 51.29-26.9Q51.29-28.69 51.96-30.25 52.63-31.81 53.8-32.98 54.98-34.16 56.55-34.83 58.12-35.5 59.91-35.5L59.91-35.5 62.4-35.5Q64.18-35.5 65.74-34.83 67.3-34.16 68.48-32.98 69.65-31.81 70.32-30.25 70.99-28.69 70.99-26.9L70.99-26.9 70.99-8.11ZM67.84-8.11L67.84-26.9Q67.84-28.08 67.4-29.09 66.96-30.1 66.21-30.86 65.45-31.62 64.44-32.06 63.42-32.5 62.25-32.5L62.25-32.5 60.05-32.5Q58.88-32.5 57.87-32.06 56.86-31.62 56.09-30.86 55.32-30.1 54.88-29.09 54.44-28.08 54.44-26.9L54.44-26.9 54.44-8.11Q54.44-6.93 54.88-5.92 55.32-4.91 56.09-4.14 56.86-3.37 57.87-2.93 58.88-2.49 60.05-2.49L60.05-2.49 62.25-2.49Q63.42-2.49 64.44-2.93 65.45-3.37 66.21-4.14 66.96-4.91 67.4-5.92 67.84-6.93 67.84-8.11L67.84-8.11ZM97.7-8.11L97.7-8.11Q97.7-6.32 97.03-4.76 96.35-3.2 95.18-2.03 94.01-0.85 92.45-0.18 90.89 0.49 89.1 0.49L89.1 0.49 86.61 0.49Q84.83 0.49 83.26-0.18 81.68-0.85 80.51-2.03 79.34-3.2 78.67-4.76 78-6.32 78-8.11L78-8.11 78-26.9Q78-28.69 78.67-30.25 79.34-31.81 80.51-32.98 81.68-34.16 83.26-34.83 84.83-35.5 86.61-35.5L86.61-35.5 89.1-35.5Q90.89-35.5 92.45-34.83 94.01-34.16 95.18-32.98 96.35-31.81 97.03-30.25 97.7-28.69 97.7-26.9L97.7-26.9 97.7-25.49 94.55-25 94.55-26.9Q94.55-28.08 94.11-29.09 93.67-30.1 92.91-30.86 92.16-31.62 91.14-32.06 90.13-32.5 88.96-32.5L88.96-32.5 86.76-32.5Q85.59-32.5 84.58-32.06 83.56-31.62 82.79-30.86 82.02-30.1 81.58-29.09 81.14-28.08 81.14-26.9L81.14-26.9 81.14-8.11Q81.14-6.93 81.58-5.92 82.02-4.91 82.79-4.14 83.56-3.37 84.58-2.93 85.59-2.49 86.76-2.49L86.76-2.49 88.96-2.49Q90.13-2.49 91.14-2.93 92.16-3.37 92.91-4.14 93.67-4.91 94.11-5.92 94.55-6.93 94.55-8.11L94.55-8.11 94.55-10.01 97.7-9.5 97.7-8.11ZM125.7 0L121.79 0 108.61-17.5 121.79-35.01 125.7-35.01 112.25-17.5 125.7 0ZM107.85 0L104.7 0 104.7-35.01 107.85-35.01 107.85 0ZM150.4-22.05L150.4-22.05Q150.4-20.26 149.73-18.7 149.06-17.14 147.89-15.97 146.72-14.79 145.14-14.12 143.57-13.45 141.78-13.45L141.78-13.45 133.85-13.45 133.85 0 130.7 0 130.7-35.01 141.78-35.01Q143.57-35.01 145.14-34.34 146.72-33.67 147.89-32.5 149.06-31.32 149.73-29.75 150.4-28.17 150.4-26.39L150.4-26.39 150.4-22.05ZM147.25-22.05L147.25-26.39Q147.25-27.56 146.81-28.58 146.37-29.59 145.61-30.36 144.84-31.13 143.82-31.57 142.81-32.01 141.64-32.01L141.64-32.01 133.85-32.01 133.85-16.46 141.64-16.46Q142.81-16.46 143.82-16.89 144.84-17.33 145.61-18.09 146.37-18.85 146.81-19.86 147.25-20.87 147.25-22.05L147.25-22.05ZM176.11 0L156.41 0 156.41-35.01 176.11-35.01 176.11-32.01 159.56-32.01 159.56-18.99 172.96-18.99 172.96-15.99 159.56-15.99 159.56-3 176.11-3 176.11 0ZM201.81-8.59L201.81-8.59Q201.81-6.81 201.14-5.25 200.47-3.69 199.3-2.51 198.13-1.34 196.55-0.67 194.98 0 193.2 0L193.2 0 182.11 0 182.11-35.01 193.2-35.01Q194.98-35.01 196.55-34.34 198.13-33.67 199.3-32.5 200.47-31.32 201.14-29.75 201.81-28.17 201.81-26.39L201.81-26.39 201.81-8.59ZM198.66-8.59L198.66-26.39Q198.66-27.56 198.22-28.58 197.79-29.59 197.02-30.36 196.25-31.13 195.23-31.57 194.22-32.01 193.05-32.01L193.05-32.01 185.26-32.01 185.26-3 193.05-3Q194.22-3 195.23-3.44 196.25-3.88 197.02-4.64 197.79-5.4 198.22-6.41 198.66-7.42 198.66-8.59L198.66-8.59ZM212.46 0L209.31 0 209.31-35.01 212.46-35.01 212.46 0ZM235.92 0L233.6-8.15 222.51-8.15 220.22 0 216.95 0 227.2-35.01 228.86-35.01 239.16 0 235.92 0ZM227.96-27.29L223.37-11.16 232.77-11.16 228.15-27.29 228.05-28.59 227.96-27.29Z" opacity="1" transform="matrix(1,0,0,1,0,0)" fill="#ffffff" class="wordmark-text-0" data-fill-palette-color="primary" id="text-0"></path></svg></g></svg></g></svg></g></svg></g></svg></g></svg></g></svg></g><g mask="url(#82143273-53a6-4546-9535-d4f939dcc988)"><g transform="matrix(2.863778771060619, 0, 0, 2.863778771060619, 64.39331918445166, 1)"><svg xmlns="http://www.w3.org/2000/svg" data-name="Layer 1" viewBox="3.4099939392881686 7.188608630868283 93.14035159647135 85.62113892239958" x="0" y="0" height="85.62113892239958" width="93.14035159647135" class="icon-none" data-fill-palette-color="accent" id="none"><path d="M3.41 76.71V23.52A4.4 4.4 0 0 1 6.54 19.3L10.2 18.2 18.9 15.58V37L28.84 35.12V12.59L37.8 9.9 45.58 7.56A8.6 8.6 0 0 1 50.58 7.56L89.58 19.3A4.4 4.4 0 0 1 92.71 23.52V43H95.9A0.68 0.68 0 0 1 96.47 44L88.87 54.6A0.68 0.68 0 0 1 87.77 54.6L80.18 44A0.68 0.68 0 0 1 80.73 43H83.92V26.79L52.47 17.33V82.9L83.92 73.44V62.92A1.54 1.54 0 0 1 85.46 61.38H91.18A1.54 1.54 0 0 1 92.72 62.92V76.71A4.4 4.4 0 0 1 89.59 80.93L52.05 92.22A13.86 13.86 0 0 1 44.05 92.22L6.54 80.93A4.4 4.4 0 0 1 3.41 76.71" fill="#ffffff" data-fill-palette-color="accent"></path></svg></g></g></svg></g><defs></defs></svg><rect width="395.52" height="247.2" fill="none" stroke="none" visibility="hidden"></rect></g></svg></g></svg>