<svg xmlns="http://www.w3.org/2000/svg" version="1.1" xmlns:xlink="http://www.w3.org/1999/xlink" viewBox="0 0 2000 217"><g transform="matrix(1,0,0,1,-1.2121212121212466,0.8633908064362004)"><svg viewBox="0 0 396 43" data-background-color="#ffffff" preserveAspectRatio="xMidYMid meet" height="217" width="2000" xmlns="http://www.w3.org/2000/svg" xmlns:xlink="http://www.w3.org/1999/xlink"><g id="tight-bounds" transform="matrix(1,0,0,1,0.2400000000000091,-0.17108665749657348)"><svg viewBox="0 0 395.52 43.342173314993126" height="43.342173314993126" width="395.52"><g><svg viewBox="0 0 395.52 43.342173314993126" height="43.342173314993126" width="395.52"><g><svg viewBox="0 0 395.52 43.342173314993126" height="43.342173314993126" width="395.52"><g id="textblocktransform"><svg viewBox="0 0 395.52 43.342173314993126" height="43.342173314993126" width="395.52" id="textblock"><g><svg viewBox="0 0 395.52 43.342173314993126" height="43.342173314993126" width="395.52"><g transform="matrix(1,0,0,1,0,0)"><svg width="395.52" viewBox="1.3 -35.45 327.13 35.85" height="43.342173314993126" data-palette-color="#111111"><path d="M28.35-31.85L25.9-26.9Q24-28.1 22.15-28.8 20.3-29.5 18.65-29.8 17-30.1 15.65-30.1L15.65-30.1Q13.05-30.1 11.5-29.1 9.95-28.1 9.95-26.2L9.95-26.2Q9.95-24.5 10.98-23.43 12-22.35 13.68-21.68 15.35-21 17.38-20.4 19.4-19.8 21.4-19.07 23.4-18.35 25.1-17.2 26.8-16.05 27.8-14.28 28.8-12.5 28.8-9.8L28.8-9.8Q28.8-6.7 27.1-4.42 25.4-2.15 22.43-0.9 19.45 0.35 15.6 0.35L15.6 0.35Q12.85 0.35 10.25-0.38 7.65-1.1 5.38-2.35 3.1-3.6 1.3-5.25L1.3-5.25 3.85-10.1Q5.65-8.45 7.68-7.3 9.7-6.15 11.78-5.55 13.85-4.95 15.7-4.95L15.7-4.95Q18.8-4.95 20.53-6.15 22.25-7.35 22.25-9.5L22.25-9.5Q22.25-11.25 21.23-12.33 20.2-13.4 18.53-14.1 16.85-14.8 14.83-15.35 12.8-15.9 10.78-16.63 8.75-17.35 7.08-18.45 5.4-19.55 4.38-21.3 3.35-23.05 3.35-25.75L3.35-25.75Q3.35-28.7 4.95-30.88 6.55-33.05 9.43-34.25 12.3-35.45 16.1-35.45L16.1-35.45Q19.5-35.45 22.7-34.45 25.9-33.45 28.35-31.85L28.35-31.85ZM31.55-29.95L31.55-35 59.6-35 59.6-29.95 48.5-29.95 48.5 0 42.6 0 42.6-29.95 31.55-29.95ZM80.3-35.35L80.3-35.35Q84.2-35.35 87.57-34 90.95-32.65 93.47-30.2 96-27.75 97.42-24.53 98.84-21.3 98.84-17.55L98.84-17.55Q98.84-13.8 97.42-10.53 96-7.25 93.47-4.8 90.95-2.35 87.57-0.98 84.2 0.4 80.3 0.4L80.3 0.4Q76.4 0.4 73.02-0.98 69.65-2.35 67.12-4.8 64.59-7.25 63.17-10.53 61.75-13.8 61.75-17.55L61.75-17.55Q61.75-21.3 63.17-24.55 64.59-27.8 67.12-30.23 69.65-32.65 73.02-34 76.4-35.35 80.3-35.35ZM80.34-30.35L80.34-30.35Q77.75-30.35 75.47-29.38 73.2-28.4 71.45-26.65 69.7-24.9 68.72-22.58 67.75-20.25 67.75-17.55L67.75-17.55Q67.75-14.85 68.75-12.5 69.75-10.15 71.5-8.38 73.25-6.6 75.52-5.6 77.8-4.6 80.34-4.6L80.34-4.6Q82.9-4.6 85.17-5.6 87.45-6.6 89.15-8.38 90.84-10.15 91.82-12.5 92.8-14.85 92.8-17.55L92.8-17.55Q92.8-20.25 91.82-22.58 90.84-24.9 89.15-26.65 87.45-28.4 85.17-29.38 82.9-30.35 80.34-30.35ZM133.94-29.95L130.49-25.9Q128.59-28 125.99-29.2 123.39-30.4 120.74-30.4L120.74-30.4Q118.14-30.4 115.87-29.43 113.59-28.45 111.87-26.7 110.14-24.95 109.19-22.63 108.24-20.3 108.24-17.6L108.24-17.6Q108.24-14.95 109.19-12.63 110.14-10.3 111.87-8.55 113.59-6.8 115.87-5.8 118.14-4.8 120.74-4.8L120.74-4.8Q123.39-4.8 125.94-5.93 128.49-7.05 130.49-9L130.49-9 133.99-5.35Q132.24-3.6 130.02-2.3 127.79-1 125.37-0.3 122.94 0.4 120.44 0.4L120.44 0.4Q116.59 0.4 113.29-0.98 109.99-2.35 107.52-4.8 105.04-7.25 103.64-10.53 102.24-13.8 102.24-17.55L102.24-17.55Q102.24-21.3 103.64-24.53 105.04-27.75 107.57-30.2 110.09-32.65 113.42-34 116.74-35.35 120.64-35.35L120.64-35.35Q123.14-35.35 125.54-34.7 127.94-34.05 130.09-32.85 132.24-31.65 133.94-29.95L133.94-29.95ZM139.99 0L139.99-35 145.89-35 145.89-16.2 162.59-35 169.54-35 145.89-9.05 145.89 0 139.99 0ZM151.44-16.15L155.34-20.85 170.44 0 163.34 0 151.44-16.15ZM175.89-35L189.84-35Q196.44-35 200.06-31.88 203.69-28.75 203.69-23.1L203.69-23.1Q203.69-17.2 200.06-13.93 196.44-10.65 189.84-10.65L189.84-10.65 179.19-10.65 181.79-13.25 181.79 0 175.89 0 175.89-35ZM179.19-15.7L189.59-15.7Q193.64-15.7 195.84-17.48 198.04-19.25 198.04-22.95L198.04-22.95Q198.04-26.5 195.84-28.23 193.64-29.95 189.59-29.95L189.59-29.95 179.19-29.95 181.79-32.55 181.79-13.1 179.19-15.7ZM209.54 0L209.54-35 234.54-35 234.54-29.95 215.44-29.95 215.44-20.1 232.54-20.1 232.54-15.1 215.44-15.1 215.44-5.05 235.14-5.05 235.14 0 209.54 0ZM242.33-35L256.68-35Q260.63-35 263.93-33.7 267.23-32.4 269.66-30.05 272.08-27.7 273.43-24.5 274.78-21.3 274.78-17.5L274.78-17.5Q274.78-13.7 273.43-10.53 272.08-7.35 269.63-4.98 267.18-2.6 263.83-1.3 260.48 0 256.53 0L256.53 0 242.33 0 242.33-35ZM248.23-5.05L256.83-5.05Q259.38-5.05 261.56-5.95 263.73-6.85 265.36-8.53 266.98-10.2 267.91-12.48 268.83-14.75 268.83-17.45L268.83-17.45Q268.83-20.2 267.88-22.48 266.93-24.75 265.28-26.45 263.63-28.15 261.41-29.05 259.18-29.95 256.58-29.95L256.58-29.95 248.23-29.95 248.23-5.05ZM281.08 0L281.08-35 286.98-35 286.98 0 281.08 0ZM291.63 0L307.08-35 313.13-35 328.43 0 322.13 0 309.93-29.05 297.78 0 291.63 0ZM299.33-8.1L299.33-13.1 320.28-13.1 320.28-8.1 299.33-8.1Z" opacity="1" transform="matrix(1,0,0,1,0,0)" fill="#ffffff" class="wordmark-text-0" data-fill-palette-color="primary" id="text-0"></path></svg></g></svg></g></svg></g></svg></g></svg></g><defs></defs></svg><rect width="395.52" height="43.342173314993126" fill="none" stroke="none" visibility="visible"></rect></g></svg></g></svg>