<svg xmlns="http://www.w3.org/2000/svg" version="1.1" xmlns:xlink="http://www.w3.org/1999/xlink" viewBox="0 0 2000 1247"><g transform="matrix(1,0,0,1,-1.2121212121212466,0.504858299595071)"><svg viewBox="0 0 396 247" data-background-color="#000000" preserveAspectRatio="xMidYMid meet" height="1247" width="2000" xmlns="http://www.w3.org/2000/svg" xmlns:xlink="http://www.w3.org/1999/xlink"><g id="tight-bounds" transform="matrix(1,0,0,1,0.2400000000000091,-0.09999999999999432)"><svg viewBox="0 0 395.52 247.2" height="247.2" width="395.52"><g><svg></svg></g><g><svg viewBox="0 0 395.52 247.2" height="247.2" width="395.52"><mask id="73b5590c-8d36-47f7-a77a-853a0de19ef1"><rect width="395.52" height="247.2" fill="white"></rect><g transform="matrix(1,0,0,1,2.842170943040401e-14,92.68297520661157)" id="clone"><svg viewBox="0 0 395.5199999999999 61.83404958677685" height="61.83404958677685" width="395.5199999999999"><g><svg viewBox="0 0 395.5199999999999 61.83404958677685" height="61.83404958677685" width="395.5199999999999"><g><svg viewBox="0 0 395.5199999999999 61.83404958677685" height="61.83404958677685" width="395.5199999999999"><g><svg viewBox="0 0 395.5199999999999 61.83404958677685" height="61.83404958677685" width="395.5199999999999"><g id="SvgjsG3325"><svg viewBox="0 0 395.5199999999999 61.83404958677685" height="61.83404958677685" width="395.5199999999999" id="SvgjsSvg3324"><g><svg viewBox="0 0 395.5199999999999 61.83404958677685" height="61.83404958677685" width="395.5199999999999"><g transform="matrix(1,0,0,1,0,0)"><svg width="395.5199999999999" viewBox="-0.06999999999999984 -41.35 298.75 47.550000000000004" height="61.83404958677685" data-palette-color="#ffffff"><path d="M15.97-31.79L15.97-31.79 15.97-20.19Q17.82-19.68 19.14-19.15 20.46-18.63 21.77-17.8 23.07-16.97 23.86-15.93 24.66-14.89 25.15-13.35 25.63-11.82 25.63-9.86L25.63-9.86Q25.63-5.44 23.03-2.86 20.43-0.27 15.97 0.39L15.97 0.39 15.97 3.2 12.43 3.2 12.43 0.59Q7.5 0.49 2.93-1.49L2.93-1.49 4.42-5.03Q8.52-3.34 12.43-3.17L12.43-3.17 12.43-16.77Q10.62-17.26 9.34-17.79 8.06-18.31 6.86-19.09 5.66-19.87 4.92-20.87 4.17-21.88 3.71-23.3 3.25-24.73 3.17-26.56L3.17-26.56Q3.17-30.32 5.69-32.74 8.2-35.16 12.43-35.57L12.43-35.57 12.43-38.35 15.97-38.35 15.97-35.55Q19.97-35.18 23.66-33.54L23.66-33.54 22.17-30Q18.65-31.49 15.97-31.79ZM12.43-21.19L12.43-21.19 12.43-31.76Q10.23-31.42 8.89-30.14 7.54-28.86 7.54-26.56L7.54-26.56Q7.54-24.29 8.7-23.16 9.86-22.02 12.43-21.19ZM15.97-15.77L15.97-15.77 15.97-3.49Q18.48-4.08 19.87-5.71 21.26-7.35 21.26-9.86L21.26-9.86Q21.26-12.33 19.97-13.61 18.68-14.89 15.97-15.77ZM30.52-31.35L30.52-35.11 56.81-35.11 56.81-31.35 46.02-31.35 46.02 0 41.43 0 41.43-31.35 30.52-31.35ZM92.26-17.55L92.26-17.55Q92.26-8.74 88.28-4.08 84.3 0.59 76.85 0.59L76.85 0.59Q69.48 0.59 65.46-4.06 61.45-8.72 61.45-17.55L61.45-17.55Q61.45-26.37 65.47-31.01 69.5-35.64 76.85-35.64L76.85-35.64Q84.3-35.64 88.28-30.97 92.26-26.29 92.26-17.55ZM87.54-17.55L87.54-17.55Q87.54-24.34 84.87-28.08 82.2-31.81 76.83-31.81L76.83-31.81Q71.43-31.81 68.79-28.04 66.16-24.27 66.16-17.55L66.16-17.55Q66.16-14.26 66.78-11.66 67.4-9.06 68.68-7.17 69.97-5.27 72.03-4.26 74.09-3.25 76.83-3.25L76.83-3.25Q82.2-3.25 84.87-6.99 87.54-10.74 87.54-17.55ZM122.04-4.76L123.19-1Q120.92-0.29 118.39 0.15 115.86 0.59 112.83 0.59L112.83 0.59Q105.36 0.59 101.56-3.88 97.75-8.35 97.75-17.04L97.75-17.04Q97.75-26.27 101.56-30.96 105.36-35.64 112.83-35.64L112.83-35.64Q115.67-35.64 117.92-35.16 120.18-34.67 122.28-33.89L122.28-33.89 121.01-30.27Q120.01-30.64 119.04-30.93 118.06-31.23 117.07-31.42 116.08-31.62 115.03-31.71 113.98-31.81 112.83-31.81L112.83-31.81Q110.12-31.81 108.17-30.85 106.22-29.88 104.95-28.04 103.68-26.2 103.07-23.55 102.46-20.9 102.46-17.53L102.46-17.53Q102.46-14.06 103.07-11.4 103.68-8.74 104.95-6.92 106.22-5.1 108.17-4.17 110.12-3.25 112.83-3.25L112.83-3.25Q115.32-3.25 117.57-3.66 119.82-4.08 122.04-4.76L122.04-4.76ZM134.27-17.04L149.94-35.64 153.04-33.15 139.57-17.19 154.21 0 148.7 0 134.27-16.94 134.27 0 129.68 0 129.68-35.11 134.27-35.11 134.27-17.04ZM161.76-35.11L172.74-35.11Q175.16-35.11 177.26-34.58 179.36-34.06 180.91-32.87 182.46-31.69 183.35-29.79 184.24-27.88 184.24-25.15L184.24-25.15Q184.24-22.09 183.22-20.17 182.19-18.24 180.44-17.11 178.7-15.99 176.39-15.58 174.08-15.16 171.52-15.16L171.52-15.16Q170.13-15.16 168.8-15.26 167.47-15.36 166.3-15.48L166.3-15.48 166.3 0 161.76 0 161.76-35.11ZM166.3-31.45L166.3-19.14Q167.47-18.99 168.75-18.91 170.03-18.82 171.33-18.82L171.33-18.82Q173.18-18.82 174.73-19.06 176.28-19.29 177.38-19.97 178.48-20.65 179.09-21.9 179.7-23.14 179.7-25.15L179.7-25.15Q179.7-26.98 179.19-28.19 178.67-29.39 177.76-30.13 176.84-30.86 175.56-31.15 174.28-31.45 172.74-31.45L172.74-31.45 166.3-31.45ZM191.44 0L191.44-35.11 210.92-35.11 210.92-31.35 196.03-31.35 196.03-21.66 206.58-21.66 206.58-17.9 196.03-17.9 196.03-3.76 211.48-3.76 211.48 0 191.44 0ZM226.47 0L219.05 0 219.05-35.11 226.47-35.11Q229.47-35.11 232.05-34.8 234.63-34.5 236.77-33.74L236.77-33.74Q238.92-32.98 240.55-31.73 242.17-30.47 243.34-28.52L243.34-28.52Q244.49-26.56 245.08-23.88 245.66-21.19 245.66-17.55L245.66-17.55Q245.66-13.92 245.08-11.23 244.49-8.54 243.34-6.59L243.34-6.59Q242.17-4.64 240.55-3.38 238.92-2.12 236.77-1.37L236.77-1.37Q234.63-0.61 232.05-0.31 229.47 0 226.47 0L226.47 0ZM223.64-3.76L227.23-3.76Q230.96-3.76 233.56-4.5 236.16-5.25 237.82-6.93L237.82-6.93Q239.46-8.62 240.2-11.22 240.95-13.82 240.95-17.55L240.95-17.55Q240.95-21.29 240.2-23.89 239.46-26.49 237.82-28.17L237.82-28.17Q236.16-29.86 233.56-30.6 230.96-31.35 227.23-31.35L227.23-31.35 223.64-31.35 223.64-3.76ZM253.18 0L253.18-35.11 257.77-35.11 257.77 0 253.18 0ZM295.68 0L291.02 0 286.4-11.94 272.51-11.94 267.9 0 263.23 0 277.15-35.11 281.76-35.11 295.68 0ZM279.45-29.98L273.95-15.7 284.96-15.7 279.45-29.98Z" opacity="1" transform="matrix(1,0,0,1,0,0)" fill="black" class="wordmark-text-0" id="SvgjsPath3323" stroke-width="5" stroke="black" stroke-linejoin="round"></path></svg></g></svg></g></svg></g></svg></g></svg></g></svg></g></svg></g></mask><g mask="url(#73b5590c-8d36-47f7-a77a-853a0de19ef1)"><g><path d="M207.814 39.034v0 69.009c7.337 2.023 13.623 4.085 18.858 6.187 5.235 2.062 10.451 4.739 15.647 8.031 5.156 3.292 9.3 7 12.433 11.125 3.173 4.125 5.731 9.241 7.674 15.349 1.904 6.068 2.856 12.989 2.856 20.762v0c0 17.53-5.156 31.411-15.468 41.644-10.312 10.272-24.312 16.717-42 19.334v0 16.717h-21.06v-15.527c-19.553-0.397-38.391-4.521-56.516-12.374v0l8.864-21.06c16.261 6.703 32.145 10.391 47.652 11.065v0-80.907c-7.179-1.943-13.306-3.966-18.382-6.068-5.077-2.062-9.994-4.64-14.754-7.734-4.759-3.094-8.606-6.623-11.541-10.589-2.975-4.006-5.374-8.824-7.199-14.456-1.824-5.671-2.895-12.136-3.212-19.394v0c0-14.912 4.997-27.167 14.992-36.766 9.955-9.598 23.32-15.21 40.096-16.835v0-16.539h21.06v16.658c15.864 1.467 31.114 5.453 45.748 11.957v0l-8.864 21.06c-13.96-5.909-26.255-9.459-36.884-10.649zM186.754 102.094v0-62.882c-8.725 1.348-15.745 4.561-21.059 9.638-5.354 5.077-8.031 12.176-8.032 21.298v0c0 9.003 2.3 15.745 6.901 20.226 4.601 4.521 11.997 8.428 22.19 11.72zM207.814 134.338v0 73.055c9.955-2.34 17.689-6.742 23.201-13.207 5.513-6.504 8.269-14.734 8.269-24.689v0c0-9.796-2.558-17.232-7.674-22.309-5.116-5.077-13.048-9.36-23.796-12.85z" fill="#ffffff" fill-rule="nonzero" stroke="none" stroke-width="1" stroke-linecap="butt" stroke-linejoin="miter" stroke-miterlimit="10" stroke-dasharray="" stroke-dashoffset="0" font-family="none" font-weight="none" font-size="none" text-anchor="none" style="mix-blend-mode: normal" data-fill-palette-color="tertiary"></path></g></g><g transform="matrix(1,0,0,1,2.842170943040401e-14,92.68297520661157)"><svg viewBox="0 0 395.5199999999999 61.83404958677685" height="61.83404958677685" width="395.5199999999999"><g><svg viewBox="0 0 395.5199999999999 61.83404958677685" height="61.83404958677685" width="395.5199999999999"><g><svg viewBox="0 0 395.5199999999999 61.83404958677685" height="61.83404958677685" width="395.5199999999999"><g><svg viewBox="0 0 395.5199999999999 61.83404958677685" height="61.83404958677685" width="395.5199999999999"><g id="textblocktransform"><svg viewBox="0 0 395.5199999999999 61.83404958677685" height="61.83404958677685" width="395.5199999999999" id="textblock"><g><svg viewBox="0 0 395.5199999999999 61.83404958677685" height="61.83404958677685" width="395.5199999999999"><g transform="matrix(1,0,0,1,0,0)"><svg width="395.5199999999999" viewBox="-0.06999999999999984 -41.35 298.75 47.550000000000004" height="61.83404958677685" data-palette-color="#ffffff"><path d="M15.97-31.79L15.97-31.79 15.97-20.19Q17.82-19.68 19.14-19.15 20.46-18.63 21.77-17.8 23.07-16.97 23.86-15.93 24.66-14.89 25.15-13.35 25.63-11.82 25.63-9.86L25.63-9.86Q25.63-5.44 23.03-2.86 20.43-0.27 15.97 0.39L15.97 0.39 15.97 3.2 12.43 3.2 12.43 0.59Q7.5 0.49 2.93-1.49L2.93-1.49 4.42-5.03Q8.52-3.34 12.43-3.17L12.43-3.17 12.43-16.77Q10.62-17.26 9.34-17.79 8.06-18.31 6.86-19.09 5.66-19.87 4.92-20.87 4.17-21.88 3.71-23.3 3.25-24.73 3.17-26.56L3.17-26.56Q3.17-30.32 5.69-32.74 8.2-35.16 12.43-35.57L12.43-35.57 12.43-38.35 15.97-38.35 15.97-35.55Q19.97-35.18 23.66-33.54L23.66-33.54 22.17-30Q18.65-31.49 15.97-31.79ZM12.43-21.19L12.43-21.19 12.43-31.76Q10.23-31.42 8.89-30.14 7.54-28.86 7.54-26.56L7.54-26.56Q7.54-24.29 8.7-23.16 9.86-22.02 12.43-21.19ZM15.97-15.77L15.97-15.77 15.97-3.49Q18.48-4.08 19.87-5.71 21.26-7.35 21.26-9.86L21.26-9.86Q21.26-12.33 19.97-13.61 18.68-14.89 15.97-15.77ZM30.52-31.35L30.52-35.11 56.81-35.11 56.81-31.35 46.02-31.35 46.02 0 41.43 0 41.43-31.35 30.52-31.35ZM92.26-17.55L92.26-17.55Q92.26-8.74 88.28-4.08 84.3 0.59 76.85 0.59L76.85 0.59Q69.48 0.59 65.46-4.06 61.45-8.72 61.45-17.55L61.45-17.55Q61.45-26.37 65.47-31.01 69.5-35.64 76.85-35.64L76.85-35.64Q84.3-35.64 88.28-30.97 92.26-26.29 92.26-17.55ZM87.54-17.55L87.54-17.55Q87.54-24.34 84.87-28.08 82.2-31.81 76.83-31.81L76.83-31.81Q71.43-31.81 68.79-28.04 66.16-24.27 66.16-17.55L66.16-17.55Q66.16-14.26 66.78-11.66 67.4-9.06 68.68-7.17 69.97-5.27 72.03-4.26 74.09-3.25 76.83-3.25L76.83-3.25Q82.2-3.25 84.87-6.99 87.54-10.74 87.54-17.55ZM122.04-4.76L123.19-1Q120.92-0.29 118.39 0.15 115.86 0.59 112.83 0.59L112.83 0.59Q105.36 0.59 101.56-3.88 97.75-8.35 97.75-17.04L97.75-17.04Q97.75-26.27 101.56-30.96 105.36-35.64 112.83-35.64L112.83-35.64Q115.67-35.64 117.92-35.16 120.18-34.67 122.28-33.89L122.28-33.89 121.01-30.27Q120.01-30.64 119.04-30.93 118.06-31.23 117.07-31.42 116.08-31.62 115.03-31.71 113.98-31.81 112.83-31.81L112.83-31.81Q110.12-31.81 108.17-30.85 106.22-29.88 104.95-28.04 103.68-26.2 103.07-23.55 102.46-20.9 102.46-17.53L102.46-17.53Q102.46-14.06 103.07-11.4 103.68-8.74 104.95-6.92 106.22-5.1 108.17-4.17 110.12-3.25 112.83-3.25L112.83-3.25Q115.32-3.25 117.57-3.66 119.82-4.08 122.04-4.76L122.04-4.76ZM134.27-17.04L149.94-35.64 153.04-33.15 139.57-17.19 154.21 0 148.7 0 134.27-16.94 134.27 0 129.68 0 129.68-35.11 134.27-35.11 134.27-17.04ZM161.76-35.11L172.74-35.11Q175.16-35.11 177.26-34.58 179.36-34.06 180.91-32.87 182.46-31.69 183.35-29.79 184.24-27.88 184.24-25.15L184.24-25.15Q184.24-22.09 183.22-20.17 182.19-18.24 180.44-17.11 178.7-15.99 176.39-15.58 174.08-15.16 171.52-15.16L171.52-15.16Q170.13-15.16 168.8-15.26 167.47-15.36 166.3-15.48L166.3-15.48 166.3 0 161.76 0 161.76-35.11ZM166.3-31.45L166.3-19.14Q167.47-18.99 168.75-18.91 170.03-18.82 171.33-18.82L171.33-18.82Q173.18-18.82 174.73-19.06 176.28-19.29 177.38-19.97 178.48-20.65 179.09-21.9 179.7-23.14 179.7-25.15L179.7-25.15Q179.7-26.98 179.19-28.19 178.67-29.39 177.76-30.13 176.84-30.86 175.56-31.15 174.28-31.45 172.74-31.45L172.74-31.45 166.3-31.45ZM191.44 0L191.44-35.11 210.92-35.11 210.92-31.35 196.03-31.35 196.03-21.66 206.58-21.66 206.58-17.9 196.03-17.9 196.03-3.76 211.48-3.76 211.48 0 191.44 0ZM226.47 0L219.05 0 219.05-35.11 226.47-35.11Q229.47-35.11 232.05-34.8 234.63-34.5 236.77-33.74L236.77-33.74Q238.92-32.98 240.55-31.73 242.17-30.47 243.34-28.52L243.34-28.52Q244.49-26.56 245.08-23.88 245.66-21.19 245.66-17.55L245.66-17.55Q245.66-13.92 245.08-11.23 244.49-8.54 243.34-6.59L243.34-6.59Q242.17-4.64 240.55-3.38 238.92-2.12 236.77-1.37L236.77-1.37Q234.63-0.61 232.05-0.31 229.47 0 226.47 0L226.47 0ZM223.64-3.76L227.23-3.76Q230.96-3.76 233.56-4.5 236.16-5.25 237.82-6.93L237.82-6.93Q239.46-8.62 240.2-11.22 240.95-13.82 240.95-17.55L240.95-17.55Q240.95-21.29 240.2-23.89 239.46-26.49 237.82-28.17L237.82-28.17Q236.16-29.86 233.56-30.6 230.96-31.35 227.23-31.35L227.23-31.35 223.64-31.35 223.64-3.76ZM253.18 0L253.18-35.11 257.77-35.11 257.77 0 253.18 0ZM295.68 0L291.02 0 286.4-11.94 272.51-11.94 267.9 0 263.23 0 277.15-35.11 281.76-35.11 295.68 0ZM279.45-29.98L273.95-15.7 284.96-15.7 279.45-29.98Z" opacity="1" transform="matrix(1,0,0,1,0,0)" fill="#ffffff" class="wordmark-text-0" data-fill-palette-color="primary" id="text-0"></path></svg></g></svg></g></svg></g></svg></g></svg></g></svg></g></svg></g></svg></g><defs></defs></svg><rect width="395.52" height="247.2" fill="none" stroke="none" visibility="hidden"></rect></g></svg></g></svg>