<svg xmlns="http://www.w3.org/2000/svg" version="1.1" xmlns:xlink="http://www.w3.org/1999/xlink" viewBox="0 0 2000 484"><g transform="matrix(1,0,0,1,-1.2112696095522324,0.3579842341473807)"><svg viewBox="0 0 396 96" data-background-color="#ffffff" preserveAspectRatio="xMidYMid meet" height="484" width="2000" xmlns="http://www.w3.org/2000/svg" xmlns:xlink="http://www.w3.org/1999/xlink"><g id="tight-bounds" transform="matrix(1,0,0,1,0.24008861730862918,-0.07080390397754854)"><svg viewBox="0 0 395.52 96.14174760378836" height="96.14174760378836" width="395.52"><g><svg viewBox="0 0 395.52 96.14174760378836" height="96.14174760378836" width="395.52"><g><svg viewBox="0 0 395.52 96.14174760378836" height="96.14174760378836" width="395.52"><g id="textblocktransform"><svg viewBox="0 0 395.52 96.14174760378836" height="96.14174760378836" width="395.52" id="textblock"><g><svg viewBox="0 0 395.52 96.14174760378836" height="96.14174760378836" width="395.52"><path d="M394.594 20.621C392.735 10.641 387.435 7.867 387.435 7.867 371.165-2.412 350.86-0.197 332.619 1.28 300.414 1.34 268.339 3.536 236.208 4.713 168.767 4.893 100.749 1.939 33.643 9.224 27.339 11.459-6.54 9.663 1.121 21.898 3.129 26.987 10.456 32.636 10.232 37.306 11.236 38.125 12.631 36.248 13.226 37.426 15.309 40.599 18.711 39.103 21.501 40.979 17.614 45.988 20.403 50.16 23.062 54.531 18.377 55.668 12.371 55.13 9.675 58.902 9.396 61.636 7.89 61.117 6.235 60.998 5.026 60.918 2.59 61.217 2.999 62.075 4.394 65.009-1.594 66.706 2.162 69.58-0.422 72.693 3.948 75.388 3.353 78.761 3.278 79.44 3.687 80.018 4.338 80.178 7.22 81.036 3.018 82.713 3.464 84.529 33.029 96.944 65.104 88.361 95.394 94.07 103.259 90.078 97.346 95.487 100.489 94.648 102.943 93.67 104.728 97.722 107.499 95.427 107.927 94.768 107.276 93.211 108.8 93.511 109.6 93.67 110.307 93.63 110.418 92.712 110.586 91.335 109.117 92.193 108.726 91.475 112.947 87.842 111.906 96.485 115.866 96.125 115.68 95.067 114.528 93.551 116.889 93.75 119.232 92.233 119.306 90.976 121.389 94.389 121.463 95.127 121.835 95.646 122.43 96.006 128.938 92.293 135.409 97.323 142.233 95.646 146.417 93.81 150.433 96.644 154.672 95.946 156.16 95.387 157.666 94.389 159.098 96.065 176.632 96.425 195.319 94.928 211.943 96.125 256.364 93.89 303.836 97.043 350.674 94.089 361.719 92.952 373.192 91.335 383.958 90.038 383.958 90.038 392.679 86.485 392.679 70.518S394.538 56.547 394.817 43.833C395.096 31.119 396.398 30.6 394.538 20.621Z" opacity="1" fill="#ffffff" data-fill-palette-color="tertiary"></path><g transform="matrix(1,0,0,1,55.76832,26.230666666666668)"><svg width="283.98335999999995" viewBox="0.35 -35.25 234.03 36" height="43.680414270455024" data-palette-color="#ffffff"><path d="M11.75-35.25Q14.75-35.25 17.05-34.2 19.35-33.15 21.3-31.05L21.3-31.05 18.35-27.65Q16.8-29.05 15.33-29.75 13.85-30.45 12.2-30.45L12.2-30.45Q10.3-30.45 9.2-29.28 8.1-28.1 8.1-26.2L8.1-26.2Q8.1-24.3 9.25-23.1 10.4-21.9 13.75-20.6L13.75-20.6Q18.05-18.85 20.08-16.5 22.1-14.15 22.1-9.85L22.1-9.85Q22.1-6.9 20.75-4.48 19.4-2.05 16.88-0.65 14.35 0.75 11 0.75L11 0.75Q7.55 0.75 5-0.48 2.45-1.7 0.35-3.95L0.35-3.95 3.55-7.45Q5.35-5.85 7-5 8.65-4.15 10.6-4.15L10.6-4.15Q12.9-4.15 14.18-5.58 15.45-7 15.45-9.45L15.45-9.45Q15.45-11.6 14.33-12.98 13.2-14.35 10.15-15.5L10.15-15.5Q5.55-17.35 3.53-19.75 1.5-22.15 1.5-25.75L1.5-25.75Q1.5-28.5 2.83-30.65 4.15-32.8 6.5-34.02 8.85-35.25 11.75-35.25L11.75-35.25ZM23.65-34.55L45.2-34.55 44.5-29.55 37.4-29.55 37.4 0 31.05 0 31.05-29.55 23.65-29.55 23.65-34.55ZM59.7-35.25Q65.8-35.25 69.09-30.8 72.4-26.35 72.4-17.3L72.4-17.3Q72.4-8.35 69.09-3.8 65.8 0.75 59.7 0.75L59.7 0.75Q53.65 0.75 50.32-3.75 47-8.25 47-17.25L47-17.25Q47-26.15 50.32-30.7 53.65-35.25 59.7-35.25L59.7-35.25ZM59.7-30.45Q56.65-30.45 55.17-27.4 53.7-24.35 53.7-17.25L53.7-17.25Q53.7-10.1 55.2-7.13 56.7-4.15 59.7-4.15L59.7-4.15Q62.8-4.15 64.27-7.1 65.75-10.05 65.75-17.3L65.75-17.3Q65.75-24.4 64.25-27.43 62.75-30.45 59.7-30.45L59.7-30.45ZM88.64-35.25Q91.29-35.25 93.32-34.38 95.34-33.5 97.24-31.7L97.24-31.7 94.19-28.05Q92.89-29.25 91.67-29.83 90.44-30.4 88.99-30.4L88.99-30.4Q85.99-30.4 84.29-27.4 82.59-24.4 82.59-17.35L82.59-17.35Q82.59-10.4 84.29-7.38 85.99-4.35 89.09-4.35L89.09-4.35Q90.64-4.35 91.79-4.98 92.94-5.6 94.49-6.9L94.49-6.9 97.54-3.4Q95.94-1.6 93.69-0.43 91.44 0.75 88.64 0.75L88.64 0.75Q82.79 0.75 79.34-3.8 75.89-8.35 75.89-17.35L75.89-17.35Q75.89-23.3 77.54-27.3 79.19-31.3 82.07-33.27 84.94-35.25 88.64-35.25L88.64-35.25ZM100.94-34.55L107.29-34.55 107.29 0 100.94 0 100.94-34.55ZM117.04-34.55L123.49-34.55 114.09-18.9 124.24 0 117.24 0 107.54-18.45 117.04-34.55ZM134.79-34.55Q141.04-34.55 144.31-31.78 147.59-29 147.59-23.6L147.59-23.6Q147.59-17.85 144.36-15 141.14-12.15 135.24-12.15L135.24-12.15 133.24-12.15 133.24 0 126.89 0 126.89-34.55 134.79-34.55ZM134.89-16.9Q138.14-16.9 139.59-18.4 141.04-19.9 141.04-23.55L141.04-23.55Q141.04-26.85 139.59-28.35 138.14-29.85 134.94-29.85L134.94-29.85 133.24-29.85 133.24-16.9 134.89-16.9ZM151.34-34.55L168.49-34.55 167.84-29.8 157.69-29.8 157.69-19.9 166.54-19.9 166.54-15.2 157.69-15.2 157.69-4.8 168.49-4.8 168.49 0 151.34 0 151.34-34.55ZM180.68-34.55Q185.03-34.55 188.21-33.23 191.38-31.9 193.36-28.13 195.33-24.35 195.33-17.45L195.33-17.45Q195.33-7.7 191.46-3.85 187.58 0 181.33 0L181.33 0 172.98 0 172.98-34.55 180.68-34.55ZM181.63-29.8L179.33-29.8 179.33-4.75 181.68-4.75Q183.93-4.75 185.46-5.8 186.98-6.85 187.86-9.65 188.73-12.45 188.73-17.45L188.73-17.45Q188.73-22.55 187.81-25.25 186.88-27.95 185.36-28.88 183.83-29.8 181.63-29.8L181.63-29.8ZM200.08-34.55L206.43-34.55 206.43 0 200.08 0 200.08-34.55ZM234.38 0L227.93 0 226.23-8.1 217.33-8.1 215.68 0 209.33 0 218.03-34.55 225.73-34.55 234.38 0ZM221.78-29.7L218.33-12.9 225.28-12.9 221.78-29.7Z" opacity="1" transform="matrix(1,0,0,1,0,0)" fill="#000000" class="wordmark-text-0" data-fill-palette-color="quaternary" id="text-0"></path></svg></g></svg></g></svg></g></svg></g><g></g></svg></g><defs></defs></svg><rect width="395.52" height="96.14174760378836" fill="none" stroke="none" visibility="hidden"></rect></g></svg></g></svg>